<?xml version="1.0" encoding="UTF-8" standalone="no"?>
<!DOCTYPE svg PUBLIC "-//W3C//DTD SVG 1.1//EN" "http://www.w3.org/Graphics/SVG/1.1/DTD/svg11.dtd">
<svg version="1.1" xmlns="http://www.w3.org/2000/svg" xmlns:xlink="http://www.w3.org/1999/xlink" preserveAspectRatio="xMidYMid meet" viewBox="0 0 640 640" width="192" height="192"><defs><path d="M640 320C640 496.61 496.61 640 320 640C143.39 640 0 496.61 0 320C0 143.39 143.39 0 320 0C496.61 0 640 143.39 640 320Z" id="b5fQzDBRN"></path><path d="M343.25 261.72L242.97 319.39L242.97 204.04L242.97 88.68L343.25 146.35L443.53 204.04L343.25 261.72Z" id="f5i7B9WCA"></path><path d="M350.83 289.14L405.54 257.67L405.54 320.61L405.54 383.54L350.83 352.08L296.12 320.61L350.83 289.14Z" id="c5qm2vTVx"></path><path d="M343.25 493.64L242.97 551.32L242.97 435.96L242.97 320.61L343.25 378.28L443.53 435.96L343.25 493.64Z" id="b2zBMnv3xE"></path></defs><g><g><g><use xlink:href="#b5fQzDBRN" opacity="1" fill="#e97900" fill-opacity="1"></use></g><g><use xlink:href="#f5i7B9WCA" opacity="1" fill="#ffffff" fill-opacity="1"></use></g><g><use xlink:href="#c5qm2vTVx" opacity="1" fill="#ffffff" fill-opacity="1"></use></g><g><use xlink:href="#b2zBMnv3xE" opacity="1" fill="#ffffff" fill-opacity="1"></use></g></g></g></svg>